<svg xmlns="http://www.w3.org/2000/svg" viewBox="0 0 449.69 449.69"><defs><style>.cls-1{fill:#231f20;}.cls-2{fill:#fff;fill-rule:evenodd;}</style></defs><g id="Layer_2" data-name="Layer 2"><g id="Layer_1-2" data-name="Layer 1"><circle class="cls-1" cx="224.85" cy="224.85" r="224.85" transform="translate(-93.13 224.85) rotate(-45)"/><path class="cls-2" d="M91.08,219.28c61.85-25.93,136.67-62.85,201.52-87.79,59.85-21.94,58.86-16,49.88,43.9-7,47.88-15,95.77-23,143.65-3,22.95-15,34.92-39.9,20.95l-77.82-54.86c-11-9-8-16,1-24.94l71.83-67.84c18.95-19,10-25.94-12-11L163.9,248.21c-14,10-28.93,10-44.89,5l-33.92-12c-21.94-8-5-17,6-21.95Z"/></g></g></svg>